<svg id="CSS" xmlns="http://www.w3.org/2000/svg" viewBox="0 0 137.13 174.03"><defs><style>.cls-1{fill:#848383;}.cls-2{fill:#868585;}.cls-3{fill:#807f7f;}</style></defs><title>icon_css</title><path class="cls-1" d="M117.06,115.06c-1.53,3.07-4.07,3.94-7.39,3.93-24.81-.09-49.63,0-74.44-.06-6,0-8.06-2.1-8.09-8.11,0-8.45,0-16.9,0-25.43,3.08-.82,5.63-.5,8.71-.27v25.3h72.95V35.16H82.66V8.57H35.94v25a17.8,17.8,0,0,1-8.41.26c-.84-3.69-.32-7.35-.39-11-.1-5.16,0-10.32,0-15.49,0-2.62.54-5,3.19-6.24A8.74,8.74,0,0,1,32,0H92a16.55,16.55,0,0,0,2,3.2c6.85,8.34,15.29,15.24,22.94,22.85ZM91.63,14c-.94,2.2-1.09,7.33,0,12.51h12.45Z"/><path class="cls-2" d="M10.1,77.83V41.17c1-1.3,2.4-.93,3.69-.93q29.71,0,59.42,0c1.3,0,2.69-.26,4.23,1.17V77.5c-1.19,1.56-2.76,1.27-4.23,1.27q-29.71,0-59.42,0C12.5,78.76,11.07,79.13,10.1,77.83ZM42.78,55.14c2.17-2.76,5.45,2.09,7.14-1.53-.16-1.44-1.3-1.91-2.36-2.33-3.73-1.46-7.9-.13-9.08,2.82s.1,4.77,4.75,6.75c1.36.58,3,.78,3,2.82-2.13,4.05-6.08-3.93-8,1.17,2.49,3.15,3.37,3.54,7,3.38,2.71-.12,4.95-.9,5.67-3.85.66-2.68-.66-4.75-3.6-6.34C45.76,57.21,43.49,57.59,42.78,55.14Zm-8-1.3c-4.53-3.87-9.65-3.92-12.5-.33-3.11,3.91-2.6,10.18,1.08,13.1,3.37,2.68,8.17,1.92,11.27-1.88-1.28-1.19-2.49-1.92-4.38-1A3.09,3.09,0,0,1,26,62.31a5.05,5.05,0,0,1,0-5.65,3.13,3.13,0,0,1,4.3-1.35C32.17,56.15,33.46,55.64,34.81,53.84Zm30.58-.38c-1.79-3.54-4.94-2.83-7.79-2.35A4.17,4.17,0,0,0,54,55.34c-.19,3.43,2.35,4.49,4.89,5.46,1.53.58,3.3.82,3.15,3-2.54,3.65-5.75-3.47-8.13.63a3.15,3.15,0,0,0,1.54,2.54c2.26,1.66,6.83,1.77,9,.25,3.66-2.57,3-6.71-1.29-9.14-1.52-.86-4.18-.34-4.41-2.94C60.67,52.4,63.38,56.77,65.39,53.46Z"/><path class="cls-3" d="M58.58,151.52l-2.66.72q-1.14-5-5.5-5a5.7,5.7,0,0,0-5,2.77,12.14,12.14,0,0,0-1.67,6.78q0,4.84,2.15,7.41a5.67,5.67,0,0,0,4.54,2.13q4.61,0,5.76-5.08l2.55.87q-1.85,6.43-8.34,6.43a8.41,8.41,0,0,1-7.11-3.49,13.3,13.3,0,0,1-2.37-8.24q0-5.86,3.05-9.09A8.47,8.47,0,0,1,50.39,145,8.13,8.13,0,0,1,56,147,8.72,8.72,0,0,1,58.58,151.52Z"/><path class="cls-3" d="M77.1,150.42l-2.68.8q-1.16-4-4.81-4a5,5,0,0,0-3.49,1.13,3.28,3.28,0,0,0-1.07,2.54,3.48,3.48,0,0,0,1.17,2.86,9.35,9.35,0,0,0,3.55,1.49l1,.29q4.15,1.05,5.62,2.8a5.72,5.72,0,0,1,1.16,3.79,5.81,5.81,0,0,1-2.28,4.9,9,9,0,0,1-5.53,1.56,8.87,8.87,0,0,1-5.53-1.64,7.62,7.62,0,0,1-2.66-4.06l2.65-.93a5.78,5.78,0,0,0,2.22,3.49,5.56,5.56,0,0,0,3.26,1,5.73,5.73,0,0,0,4.06-1.26,4.11,4.11,0,0,0,0-5.61,10.37,10.37,0,0,0-4-1.7l-.9-.27q-3.83-1-5.26-2.72A5.76,5.76,0,0,1,62.39,151a5.37,5.37,0,0,1,2.07-4.37,7.8,7.8,0,0,1,5.1-1.59Q75.36,145,77.1,150.42Z"/><path class="cls-3" d="M96.43,150.42l-2.67.8q-1.16-4-4.81-4a5,5,0,0,0-3.49,1.13,3.29,3.29,0,0,0-1.07,2.54,3.48,3.48,0,0,0,1.17,2.86,9.35,9.35,0,0,0,3.55,1.49l1,.29q4.15,1.05,5.62,2.8a5.72,5.72,0,0,1,1.16,3.79,5.8,5.8,0,0,1-2.28,4.9A9,9,0,0,1,89,168.55a8.87,8.87,0,0,1-5.53-1.64,7.62,7.62,0,0,1-2.66-4.06l2.65-.93a5.78,5.78,0,0,0,2.22,3.49,5.57,5.57,0,0,0,3.26,1A5.73,5.73,0,0,0,93,165.11a4.11,4.11,0,0,0,0-5.61,10.38,10.38,0,0,0-4-1.7l-.9-.27q-3.83-1-5.26-2.72A5.76,5.76,0,0,1,81.71,151a5.37,5.37,0,0,1,2.08-4.37A7.8,7.8,0,0,1,88.88,145Q94.69,145,96.43,150.42Z"/></svg>