<svg id="レイヤー_1" data-name="レイヤー 1" xmlns="http://www.w3.org/2000/svg" viewBox="0 0 311.31 94.53"><defs><style>.cls-1{fill:#50dae6;}.cls-2{fill:#fbf8a5;}.cls-3{isolation:isolate;}.cls-4{fill:#fff;}</style></defs><title>logo_title</title><path class="cls-1" d="M31.25,88.91c-.34-.18-.58-.29-.82-.43Q15.65,80,.86,71.48A1.5,1.5,0,0,1,0,70V24.51a1.44,1.44,0,0,1,.83-1.44Q20.59,11.69,40.32.26a1.24,1.24,0,0,1,1.43,0Q61.53,11.7,81.33,23.11a1.31,1.31,0,0,1,.78,1.3V70a1.37,1.37,0,0,1-.8,1.37Q67.71,79.24,54.12,87.1l-.84.47a3,3,0,0,1-.07-.4v-5.5c0-.56.32-.72.67-.93l7.86-4.53c4.64-2.68,9.27-5.37,13.92-8a1.44,1.44,0,0,0,.82-1.45v-39a1.44,1.44,0,0,0-.84-1.44Q58.76,16.61,41.9,6.84a1.49,1.49,0,0,0-1.73,0Q23.35,16.59,6.5,26.28a1.49,1.49,0,0,0-.87,1.49v39a1.44,1.44,0,0,0,.83,1.44Q18.3,75,30.11,81.85a3.37,3.37,0,0,0,.44.24,1.16,1.16,0,0,1,.77,1.3c0,1.55,0,3.11,0,4.66C31.3,88.27,31.27,88.54,31.25,88.91Z" transform="translate(0.02 -0.03)"/><path class="cls-2" d="M41,94.56l-1.61-.92c-1.68-1-3.35-2-5-2.9a1.28,1.28,0,0,1-.74-1.31V44.63a4.28,4.28,0,0,0-.11-1.06,10.32,10.32,0,0,0-1.53,2c-.49.71-1,1.43-1.42,2.15l-1.37,2.09L27.73,52l-1.5,2.26-7-10.69L19,43.6c-.08,1.79,0,3.58,0,5.37v10.9c-1.81.17-3.54,0-5.23.08-.22-.72-.28-24.39-.07-25.46.26,0,.55-.08.85-.08h4.25a1.22,1.22,0,0,1,1.2.67c1.91,3.12,3.86,6.23,5.79,9.34.16.25.34.49.57.82.26-.39.46-.69.65-1,1.89-3,3.79-6.07,5.66-9.12a1.28,1.28,0,0,1,1.26-.72h4.25a4.7,4.7,0,0,1,.88.06V85.62c0,1.55-.1,1.14,1.1,1.94a1.43,1.43,0,0,0,1.81,0c.9-.6,1.85-1.11,2.81-1.63a1,1,0,0,0,.6-1.07V34.66a20.69,20.69,0,0,1,5.45-.11c0,.29,0,.61,0,.93v10c.46,0,.61-.33.8-.54,3-3.23,6-6.45,9-9.71a2,2,0,0,1,1.73-.75H68L57.63,45.21,68.45,59.86c-.37,0-.58.07-.79.07H62.58a1.27,1.27,0,0,1-1.17-.61q-3.43-4.76-6.9-9.49l-.59-.77a6.24,6.24,0,0,0-.53.43c-.7.71-1.37,1.45-2.09,2.15a1.47,1.47,0,0,0-.47,1.18V55q0,16.28,0,32.56v.83a.72.72,0,0,1-.42.74l-9.24,5.31Z" transform="translate(0.02 -0.03)"/><g class="cls-3"><path class="cls-4" d="M112.48,33.22q10.68,0,10.68,8.47a8,8,0,0,1-2.87,6.67,12,12,0,0,1-7.66,2.26h-4.22v10.6H104v-28Zm-.27,13.87a7.86,7.86,0,0,0,5-1.31,5,5,0,0,0,1.61-4.08,4.24,4.24,0,0,0-1.65-3.78,9.25,9.25,0,0,0-5.11-1.12h-3.65v10.3Z" transform="translate(0.02 -0.03)"/><path class="cls-4" d="M132.9,59.94a11.86,11.86,0,0,1-4.29-5.07,18.07,18.07,0,0,1-1.54-7.73,17.86,17.86,0,0,1,1.54-7.68,11.51,11.51,0,0,1,4.29-5,12.51,12.51,0,0,1,12.69,0,11.51,11.51,0,0,1,4.29,5,17.85,17.85,0,0,1,1.54,7.68,18.07,18.07,0,0,1-1.54,7.73,11.82,11.82,0,0,1-4.31,5.07,12.13,12.13,0,0,1-12.67,0Zm10.35-3.38a8.45,8.45,0,0,0,2.7-3.76,15.51,15.51,0,0,0,1-5.66,15.2,15.2,0,0,0-1-5.62,8.13,8.13,0,0,0-2.68-3.67,7.07,7.07,0,0,0-8.09,0,8,8,0,0,0-2.66,3.67,15.47,15.47,0,0,0-.93,5.62,15.5,15.5,0,0,0,1,5.66,8.51,8.51,0,0,0,2.68,3.76,6.39,6.39,0,0,0,4,1.33A6.47,6.47,0,0,0,143.26,56.56Z" transform="translate(0.02 -0.03)"/><path class="cls-4" d="M166.4,33.22a12.6,12.6,0,0,1,7.39,1.92q2.72,1.92,2.72,6.21A8.19,8.19,0,0,1,175,46.51a8.49,8.49,0,0,1-4.31,2.87l6.84,11.86h-5l-6.35-11.29h-4.52V61.23h-4.41v-28Zm-.53,13.19a7.37,7.37,0,0,0,4.67-1.27,4.55,4.55,0,0,0,1.6-3.78,3.92,3.92,0,0,0-1.56-3.51,8.54,8.54,0,0,0-4.71-1h-4.22v9.61Z" transform="translate(0.02 -0.03)"/><path class="cls-4" d="M187.87,61.23V36.95h-8.21V33.22h20.86v3.72h-8.25V61.23Z" transform="translate(0.02 -0.03)"/><path class="cls-4" d="M205.35,61.23v-28h16.57v3.72H209.76V45.5h10.34v3.69H209.76v12Z" transform="translate(0.02 -0.03)"/><path class="cls-4" d="M231.17,59.94a11.86,11.86,0,0,1-4.29-5.07,18.07,18.07,0,0,1-1.54-7.73,17.85,17.85,0,0,1,1.54-7.68,11.51,11.51,0,0,1,4.29-5,12.51,12.51,0,0,1,12.69,0,11.51,11.51,0,0,1,4.29,5,17.85,17.85,0,0,1,1.54,7.68,18.07,18.07,0,0,1-1.54,7.73,11.82,11.82,0,0,1-4.31,5.07,12.13,12.13,0,0,1-12.67,0Zm10.35-3.38a8.45,8.45,0,0,0,2.7-3.76,15.52,15.52,0,0,0,1-5.66,15.21,15.21,0,0,0-1-5.62,8.14,8.14,0,0,0-2.68-3.67,7.07,7.07,0,0,0-8.09,0,8,8,0,0,0-2.66,3.67,15.47,15.47,0,0,0-.93,5.62,15.5,15.5,0,0,0,1,5.66,8.51,8.51,0,0,0,2.68,3.76,6.39,6.39,0,0,0,4,1.33A6.47,6.47,0,0,0,241.53,56.56Z" transform="translate(0.02 -0.03)"/><path class="cls-4" d="M255.51,61.23v-28h4.41V57.51h11.86v3.72Z" transform="translate(0.02 -0.03)"/><path class="cls-4" d="M276.71,61.23v-28h4.41v28Z" transform="translate(0.02 -0.03)"/><path class="cls-4" d="M292.77,59.94a11.87,11.87,0,0,1-4.29-5.07,18.08,18.08,0,0,1-1.54-7.73,17.87,17.87,0,0,1,1.54-7.68,11.51,11.51,0,0,1,4.29-5,12.51,12.51,0,0,1,12.69,0,11.52,11.52,0,0,1,4.29,5,17.85,17.85,0,0,1,1.54,7.68,18.07,18.07,0,0,1-1.54,7.73,11.82,11.82,0,0,1-4.31,5.07,12.13,12.13,0,0,1-12.67,0Zm10.36-3.38a8.44,8.44,0,0,0,2.7-3.76,15.5,15.5,0,0,0,1-5.66,15.19,15.19,0,0,0-1-5.62,8.13,8.13,0,0,0-2.68-3.67,7.07,7.07,0,0,0-8.09,0,8,8,0,0,0-2.66,3.67,15.47,15.47,0,0,0-.93,5.62,15.5,15.5,0,0,0,1,5.66,8.5,8.5,0,0,0,2.68,3.76,6.39,6.39,0,0,0,4,1.33A6.47,6.47,0,0,0,303.12,56.56Z" transform="translate(0.02 -0.03)"/></g></svg>